<mxfile host="app.diagrams.net" modified="2023-12-26T16:00:33.768Z" agent="Mozilla/5.0 (Windows NT 10.0; Win64; x64) AppleWebKit/537.36 (KHTML, like Gecko) Chrome/120.0.0.0 Safari/537.36" version="22.1.11" etag="MIJBRV83CK9ZCT_HDC3d" type="github">
  <diagram name="Page-1" id="z6f1Kdr-6b2D0rwKhGwx">
    <mxGraphModel>
      <root>
        <mxCell id="0" />
        <mxCell id="1" parent="0" />
      </root>
    </mxGraphModel>
  </diagram>
</mxfile>
